<?xml version="1.0" standalone="no"?>
<!DOCTYPE svg PUBLIC "-//W3C//DTD SVG 20010904//EN"
 "http://www.w3.org/TR/2001/REC-SVG-20010904/DTD/svg10.dtd">
<svg version="1.0" xmlns="http://www.w3.org/2000/svg"
 width="512.000000pt" height="512.000000pt" viewBox="0 0 512.000000 512.000000"
 preserveAspectRatio="xMidYMid meet">

<g transform="translate(0.000000,512.000000) scale(0.100000,-0.100000)"
fill="#000000" stroke="none">
<path d="M2315 5109 c-800 -83 -1501 -518 -1927 -1196 -604 -960 -491 -2229
272 -3065 423 -463 951 -740 1585 -830 118 -17 511 -16 635 0 579 80 1097 337
1491 739 130 132 157 163 243 277 256 341 423 757 488 1211 17 118 17 512 0
630 -43 303 -122 561 -247 814 -134 268 -270 459 -483 674 -395 400 -889 649
-1457 733 -123 18 -478 26 -600 13z m1065 -819 c287 -34 463 -112 631 -279
170 -169 246 -344 281 -646 18 -158 18 -1432 0 -1604 -33 -303 -123 -505 -304
-677 -156 -148 -338 -223 -623 -256 -158 -18 -1432 -18 -1604 0 -302 32 -503
122 -673 300 -148 155 -226 340 -258 612 -16 138 -24 1127 -12 1415 12 248 26
361 63 480 73 242 250 449 475 555 145 68 297 98 559 110 243 12 1349 4 1465
-10z"/>
<path d="M1815 3979 c-219 -16 -372 -76 -485 -189 -117 -116 -171 -262 -190
-504 -13 -168 -13 -1269 0 -1446 18 -248 71 -391 190 -510 119 -119 262 -172
510 -190 175 -13 1265 -13 1440 0 248 18 391 71 510 190 119 119 172 262 190
510 13 175 13 1265 0 1440 -18 248 -71 391 -190 510 -119 119 -262 172 -510
190 -160 12 -1306 11 -1465 -1z m1776 -302 c165 -87 134 -341 -47 -386 -151
-38 -290 98 -254 248 31 132 182 201 301 138z m-921 -228 c108 -13 244 -58
339 -112 93 -53 232 -183 296 -278 190 -284 201 -659 27 -954 -64 -109 -220
-265 -322 -322 -365 -203 -804 -141 -1092 154 -170 174 -251 375 -251 623 -1
246 81 449 251 623 204 207 470 302 752 266z"/>
<path d="M2422 3126 c-208 -51 -388 -236 -431 -444 -40 -192 21 -395 159 -532
109 -110 254 -170 410 -170 97 0 162 16 259 62 195 93 321 296 321 518 0 97
-16 162 -62 259 -71 149 -218 268 -379 306 -77 18 -204 18 -277 1z"/>
</g>
</svg>
