<?xml version="1.0" standalone="no"?>
<!DOCTYPE svg PUBLIC "-//W3C//DTD SVG 20010904//EN"
 "http://www.w3.org/TR/2001/REC-SVG-20010904/DTD/svg10.dtd">
<svg version="1.0" xmlns="http://www.w3.org/2000/svg"
 width="512.000000pt" height="512.000000pt" viewBox="0 0 512.000000 512.000000"
 preserveAspectRatio="xMidYMid meet">

<g transform="translate(0.000000,512.000000) scale(0.100000,-0.100000)"
fill="#000000" stroke="none">
<path d="M2321 5109 c-486 -43 -989 -249 -1376 -564 -114 -92 -294 -274 -384
-387 -229 -287 -417 -675 -495 -1023 -49 -218 -60 -325 -60 -575 0 -250 11
-357 60 -575 79 -355 272 -749 509 -1040 92 -114 274 -294 387 -384 287 -229
675 -417 1023 -495 218 -49 325 -60 575 -60 250 0 357 11 575 60 261 58 603
204 828 353 389 259 688 599 893 1016 165 337 246 658 261 1033 23 598 -168
1183 -545 1672 -84 109 -323 348 -432 432 -528 407 -1164 595 -1819 537z m579
-184 c133 -20 323 -66 454 -111 214 -74 501 -232 690 -382 91 -71 317 -297
388 -388 150 -189 308 -476 382 -690 93 -273 130 -497 130 -794 0 -243 -15
-369 -69 -585 -213 -844 -886 -1517 -1730 -1730 -216 -54 -342 -69 -585 -69
-297 0 -521 37 -794 130 -214 74 -501 232 -690 382 -91 71 -317 297 -388 388
-150 189 -308 476 -382 690 -45 133 -91 321 -113 464 -24 159 -24 501 0 660
39 259 109 485 221 715 126 257 251 432 460 641 147 146 224 210 378 312 317
209 692 341 1083 381 123 13 437 5 565 -14z"/>
<path d="M1395 4090 c-137 -23 -235 -86 -306 -198 -68 -107 -64 -31 -64 -1332
0 -1098 1 -1179 18 -1231 43 -136 150 -243 286 -286 52 -17 133 -18 1231 -18
1098 0 1179 1 1231 18 136 43 243 150 286 286 17 52 18 133 18 1231 0 1098 -1
1179 -18 1231 -43 135 -144 238 -283 286 -45 16 -140 17 -1199 19 -632 1
-1172 -2 -1200 -6z m2375 -186 c55 -26 123 -97 141 -150 21 -58 21 -2330 0
-2388 -20 -56 -93 -131 -149 -153 -44 -17 -114 -18 -1202 -18 -1088 0 -1158 1
-1202 18 -56 22 -129 97 -149 153 -21 58 -21 2330 0 2388 16 45 81 121 125
143 16 8 50 19 75 23 25 4 557 7 1181 6 1130 -1 1135 -1 1180 -22z"/>
<path d="M3395 3731 c-91 -41 -149 -133 -148 -236 1 -141 107 -247 248 -248
143 -1 254 105 255 243 0 87 -16 127 -74 186 -34 33 -67 56 -92 63 -59 16
-144 13 -189 -8z m162 -173 c45 -42 23 -119 -39 -141 -32 -11 -79 14 -94 49
-34 82 68 153 133 92z"/>
<path d="M2425 3404 c-49 -8 -165 -44 -221 -69 -169 -75 -344 -250 -418 -418
-59 -131 -71 -192 -71 -357 0 -165 12 -226 71 -357 74 -168 249 -343 418 -418
130 -58 191 -70 356 -70 165 0 226 12 356 70 169 75 344 250 418 418 59 132
71 192 70 357 0 122 -4 168 -18 215 -67 219 -188 386 -362 498 -145 94 -256
127 -434 132 -74 2 -148 1 -165 -1z m297 -183 c309 -79 518 -346 518 -661 0
-374 -306 -680 -680 -680 -505 0 -831 528 -609 984 137 281 468 434 771 357z"/>
</g>
</svg>
