<svg xmlns="http://www.w3.org/2000/svg" xmlns:xlink="http://www.w3.org/1999/xlink" width="500" zoomAndPan="magnify" viewBox="0 0 375 374.999991" height="500" preserveAspectRatio="xMidYMid meet" version="1.0"><defs><clipPath id="0660265cea"><path d="M 17.742188 18.589844 L 357.492188 18.589844 L 357.492188 356.089844 L 17.742188 356.089844 Z M 17.742188 18.589844 " clip-rule="nonzero"/></clipPath></defs><rect x="-37.5" width="450" fill="#ffffff" y="-37.499999" height="449.999989" fill-opacity="1"/><rect x="-37.5" width="450" fill="#000000" y="-37.499999" height="449.999989" fill-opacity="1"/><g clip-path="url(#0660265cea)"><path fill="#38b6ff" d="M 17.898438 142.839844 C 17.898438 192.191406 57.898438 232.191406 107.242188 232.191406 L 357.0625 232.191406 C 357.0625 182.839844 317.0625 142.839844 267.71875 142.839844 Z M 165.675781 107.949219 L 267.71875 107.949219 C 292.390625 107.949219 314.726562 97.953125 330.898438 81.785156 C 347.066406 65.617188 357.0625 43.273438 357.0625 18.605469 L 255.019531 18.605469 C 205.675781 18.605469 165.675781 58.605469 165.675781 107.949219 Z M 107.242188 267.078125 L 209.285156 267.078125 C 209.285156 291.75 199.285156 314.09375 183.117188 330.261719 C 166.949219 346.429688 144.609375 356.425781 119.941406 356.425781 L 17.898438 356.425781 C 17.898438 307.082031 57.898438 267.078125 107.242188 267.078125 " fill-opacity="1" fill-rule="nonzero"/></g></svg>